<svg xmlns="http://www.w3.org/2000/svg" viewBox="0 0 900 1300" fill="none">
  <rect width="900" height="1300" rx="36" fill="#fffaf5"/>
  <rect x="18" y="18" width="864" height="1264" rx="34" stroke="#d8b8b5" stroke-width="2"/>
  <g opacity=".68">
    <path d="M0 0h310C248 126 139 191 0 214V0Z" fill="#f4dbda"/>
    <path d="M900 1300H610c49-128 147-201 290-234v234Z" fill="#f3ddd9"/>
  </g>
  <g stroke="#8f8879" stroke-width="2.2" stroke-linecap="round" stroke-linejoin="round" opacity=".7">
    <path d="M33 126c119 36 207 5 285-82M62 100c33-49 75-75 126-78M121 128c43-46 92-65 148-56"/>
    <path d="M90 57c38 10 56 32 54 66-39-7-57-30-54-66ZM155 34c45-3 75 15 91 54-48 7-78-11-91-54ZM205 80c43-14 77-6 103 26-43 17-78 9-103-26Z"/>
    <path d="M585 60c92 49 175 47 283-14M656 73c39-37 84-53 136-47M724 103c44-28 86-36 127-22"/>
    <path d="M53 1170c103-34 183-19 264 55M90 1212c32 36 73 53 125 50M129 1164c39 33 82 44 131 31"/>
    <path d="M582 1215c104-14 183-56 264-143M641 1166c41 16 82 13 124-10M704 1116c52 10 95 2 128-25"/>
  </g>
  <g opacity=".8">
    <circle cx="94" cy="83" r="26" fill="#e8b8b8"/><circle cx="142" cy="62" r="18" fill="#f1d0d1"/><circle cx="767" cy="105" r="22" fill="#e8b8b8"/>
    <circle cx="78" cy="1190" r="24" fill="#e8b8b8"/><circle cx="807" cy="1117" r="24" fill="#e8b8b8"/><circle cx="756" cy="1184" r="17" fill="#d8c3dc"/>
  </g>
  <g transform="translate(740 965)" stroke="#a89082" stroke-width="5" stroke-linecap="round" stroke-linejoin="round" opacity=".74">
    <path d="M58 6C40 98 29 168 10 255M58 6c18 92 29 168 48 255M31 119h54M22 171h72M14 224h88M37 80h42"/>
    <path d="M31 261c10-52 18-78 27-78s17 26 27 78"/>
  </g>
  <path d="M390 1152c11-20 40-15 40 11 0 25-40 43-40 43s-40-18-40-43c0-26 29-31 40-11Z" fill="#b88691" opacity=".8"/>
  <text x="450" y="1194" text-anchor="middle" fill="#b88691" font-family="Georgia, serif" font-size="38" font-style="italic">Thank you!</text>
</svg>
