<svg xmlns="http://www.w3.org/2000/svg" viewBox="0 0 900 1300" fill="none">
  <rect width="900" height="1300" rx="36" fill="#fff7fa"/>
  <rect x="18" y="18" width="864" height="1264" rx="34" stroke="#f4aac5" stroke-width="2"/>
  <path d="M0 0h220L0 220V0Z" fill="#ffdce9" opacity=".7"/>
  <path d="M140 0c42 60 19 128-51 162" stroke="#f48ab0" stroke-width="18" opacity=".42"/>
  <path d="M150 70c35-20 73-14 99 18-43 8-73 2-99-18Z" fill="#f48ab0" opacity=".5"/>
  <path d="M271 72 360 50l18 66-89 22-18-66Z" fill="#fff" stroke="#f4aac5" stroke-width="3"/>
  <path d="m272 74 61 34 45-57" stroke="#f4aac5" stroke-width="3"/>
  <path d="M333 74c9-14 31-8 31 10 0 18-31 31-31 31s-31-13-31-31c0-18 22-24 31-10Z" fill="#ee6c9a"/>
  <g fill="#f48ab0" opacity=".78">
    <path d="M747 156c23-39 78-20 78 29 0 48-78 83-78 83s-78-35-78-83c0-49 55-68 78-29Z"/>
    <path d="M107 299c14-24 48-12 48 18 0 29-48 51-48 51s-48-22-48-51c0-30 34-42 48-18Z"/>
    <path d="M800 889c15-25 51-13 51 19 0 31-51 54-51 54s-51-23-51-54c0-32 36-44 51-19Z"/>
  </g>
  <g fill="#f7c3d4" opacity=".76">
    <circle cx="110" cy="1015" r="9"/><circle cx="164" cy="1062" r="7"/><circle cx="796" cy="580" r="8"/><circle cx="739" cy="1118" r="7"/>
  </g>
  <g stroke="#f48ab0" stroke-width="2.5" opacity=".75" stroke-linecap="round">
    <path d="M725 373c36 3 54 22 55 58M747 394c21 5 32 19 33 40"/>
    <path d="M92 726c-33 20-47 49-42 87M76 754c-18 17-25 37-22 60"/>
  </g>
  <g transform="translate(596 1067)">
    <path d="M84 48c25-44 88-22 88 32 0 55-88 95-88 95S-4 135-4 80c0-54 63-76 88-32Z" fill="#f48ab0" opacity=".9"/>
    <path d="M45 114c29-24 61-24 95 0" stroke="#fff" stroke-width="5" opacity=".8" stroke-linecap="round"/>
  </g>
  <g transform="translate(66 1082)">
    <path d="M0 110c18-90 119-117 177-48 30 37 29 92-1 138H31C12 170-5 143 0 110Z" fill="#ffd5e2"/>
    <path d="M38 66c18-42 60-52 86-22-35 4-62 13-86 22ZM101 52c32-29 72-27 95 5-42 5-70 4-95-5Z" fill="#f2a6bf"/>
    <path d="M38 142h100" stroke="#fff" stroke-width="7" stroke-linecap="round"/>
  </g>
  <text x="448" y="1168" text-anchor="middle" fill="#e98bad" font-family="Georgia, serif" font-size="34" font-style="italic">Hope to see you!</text>
</svg>
