<svg xmlns="http://www.w3.org/2000/svg" viewBox="0 0 520 360" fill="none">
  <path d="M164 301c40-142 65-213 96-213s56 71 96 213" stroke="#8d263f" stroke-width="10" stroke-linecap="round"/>
  <path d="M205 208h110M185 255h150M225 147h70" stroke="#2c5f73" stroke-width="8" stroke-linecap="round"/>
  <path d="M221 301c8-51 20-77 39-77s31 26 39 77" stroke="#8d263f" stroke-width="8"/>
  <path d="M138 301h244" stroke="#331d23" stroke-width="8" stroke-linecap="round"/>
  <path d="M104 111c34-34 78-41 118-18-40 20-76 34-118 18Z" fill="#f0d8d6" stroke="#8d263f" stroke-width="6"/>
  <path d="M388 109c-33-30-72-35-112-14 36 20 72 31 112 14Z" fill="#f7e4cf" stroke="#2c5f73" stroke-width="6"/>
  <circle cx="110" cy="226" r="18" fill="#8d263f"/>
  <circle cx="140" cy="211" r="15" fill="#d99ca6"/>
  <circle cx="409" cy="230" r="18" fill="#2c5f73"/>
  <circle cx="435" cy="214" r="15" fill="#f0d8d6"/>
  <path d="M96 246c-21 22-25 45-12 69M425 249c24 21 31 43 22 67" stroke="#5d6f4d" stroke-width="6" stroke-linecap="round"/>
</svg>
