<svg xmlns="http://www.w3.org/2000/svg" viewBox="0 0 520 360" fill="none">
  <path d="M251 76c67 0 112 53 94 111-12 39-46 65-94 65s-82-26-94-65c-18-58 27-111 94-111Z" fill="#ffc24d" stroke="#1f3440" stroke-width="8"/>
  <path d="M199 91c-25 43-25 95 0 146M303 91c25 43 25 95 0 146M158 165h186" stroke="#ef5a3c" stroke-width="7" stroke-linecap="round"/>
  <path d="M211 252h80l-15 54h-50l-15-54Z" fill="#17a7c8" stroke="#1f3440" stroke-width="7" stroke-linejoin="round"/>
  <path d="m72 116 83 23-59 37 13-42-37-18ZM410 86l56 15-40 26 9-29-25-12Z" fill="#fffaf0" stroke="#1f3440" stroke-width="7" stroke-linejoin="round"/>
  <path d="M82 273h46M371 276h70M59 236h95" stroke="#17a7c8" stroke-width="8" stroke-linecap="round"/>
  <circle cx="108" cy="77" r="16" fill="#ef5a3c"/>
  <circle cx="436" cy="218" r="18" fill="#ffc24d"/>
  <path d="m374 50 8 17 19 2-14 12 4 18-17-9-16 9 3-18-14-12 19-2 8-17Z" fill="#ef5a3c"/>
</svg>
